<svg width="200" height="192" viewBox="0 0 200 192" fill="none" xmlns="http://www.w3.org/2000/svg">
<rect x="64" y="50" width="80" height="80" rx="32" fill="url(#paint0_linear_2346_54149)"/>
<path d="M121.023 87.1662C122.673 87.1662 123.976 85.5714 123.657 83.8627C121.928 74.6642 112.964 70.0508 104 70.0508C95.0365 70.0508 86.0994 74.6642 84.3439 83.8627C84.0247 85.5714 85.3546 87.1662 86.9771 87.1662H121.023Z" fill="white"/>
<path d="M121.285 104.253H86.7067C85.2438 104.253 84.0469 105.535 84.0469 107.101C84.0469 108.667 85.2438 109.949 86.7067 109.949H121.285C122.748 109.949 123.945 108.667 123.945 107.101C123.945 105.535 122.748 104.253 121.285 104.253Z" fill="white"/>
<path d="M86.7067 92.8618H121.285C122.748 92.8618 123.945 94.1433 123.945 95.7096C123.945 97.2759 122.748 98.5575 121.285 98.5575H86.7067C85.2438 98.5575 84.0469 97.2759 84.0469 95.7096C84.0469 94.1433 85.2438 92.8618 86.7067 92.8618Z" fill="white"/>
<path d="M72.6189 158V141.3H82.7051V143.803H75.5809V148.527H81.6581V151.029H75.5809V158H72.6189ZM90.1137 158.306C89.3306 158.306 88.5816 158.162 87.8667 157.872C87.1517 157.583 86.5133 157.157 85.9515 156.596C85.4068 156.034 84.9727 155.344 84.6493 154.527C84.3258 153.71 84.1641 152.782 84.1641 151.744C84.1641 150.706 84.3258 149.778 84.6493 148.961C84.9727 148.144 85.4068 147.454 85.9515 146.892C86.5133 146.331 87.1517 145.905 87.8667 145.616C88.5816 145.309 89.3306 145.156 90.1137 145.156C90.8968 145.156 91.6458 145.309 92.3608 145.616C93.0927 145.905 93.7311 146.331 94.2759 146.892C94.8206 147.454 95.2547 148.144 95.5781 148.961C95.9186 149.778 96.0888 150.706 96.0888 151.744C96.0888 152.782 95.9186 153.71 95.5781 154.527C95.2547 155.344 94.8206 156.034 94.2759 156.596C93.7311 157.157 93.0927 157.583 92.3608 157.872C91.6458 158.162 90.8968 158.306 90.1137 158.306ZM90.1137 155.906C91.033 155.906 91.7564 155.532 92.2842 154.783C92.8119 154.017 93.0757 153.004 93.0757 151.744C93.0757 150.467 92.8119 149.454 92.2842 148.705C91.7564 147.939 91.033 147.556 90.1137 147.556C89.1945 147.556 88.471 147.939 87.9433 148.705C87.4326 149.454 87.1772 150.467 87.1772 151.744C87.1772 153.004 87.4326 154.017 87.9433 154.783C88.471 155.532 89.1945 155.906 90.1137 155.906ZM104.128 158.306C103.345 158.306 102.596 158.162 101.881 157.872C101.166 157.583 100.527 157.157 99.9657 156.596C99.421 156.034 98.9869 155.344 98.6634 154.527C98.34 153.71 98.1783 152.782 98.1783 151.744C98.1783 150.706 98.34 149.778 98.6634 148.961C98.9869 148.144 99.421 147.454 99.9657 146.892C100.527 146.331 101.166 145.905 101.881 145.616C102.596 145.309 103.345 145.156 104.128 145.156C104.911 145.156 105.66 145.309 106.375 145.616C107.107 145.905 107.745 146.331 108.29 146.892C108.835 147.454 109.269 148.144 109.592 148.961C109.933 149.778 110.103 150.706 110.103 151.744C110.103 152.782 109.933 153.71 109.592 154.527C109.269 155.344 108.835 156.034 108.29 156.596C107.745 157.157 107.107 157.583 106.375 157.872C105.66 158.162 104.911 158.306 104.128 158.306ZM104.128 155.906C105.047 155.906 105.771 155.532 106.298 154.783C106.826 154.017 107.09 153.004 107.09 151.744C107.09 150.467 106.826 149.454 106.298 148.705C105.771 147.939 105.047 147.556 104.128 147.556C103.209 147.556 102.485 147.939 101.957 148.705C101.447 149.454 101.191 150.467 101.191 151.744C101.191 153.004 101.447 154.017 101.957 154.783C102.485 155.532 103.209 155.906 104.128 155.906ZM117.401 158.306C115.818 158.306 114.559 157.736 113.622 156.596C112.703 155.438 112.243 153.821 112.243 151.744C112.243 150.723 112.388 149.803 112.678 148.986C112.984 148.169 113.384 147.48 113.878 146.918C114.371 146.356 114.933 145.922 115.563 145.616C116.21 145.309 116.874 145.156 117.555 145.156C118.27 145.156 118.874 145.284 119.368 145.539C119.861 145.777 120.355 146.109 120.849 146.535L120.747 144.518V139.973H123.683V158H121.257L121.053 156.647H120.951C120.491 157.106 119.955 157.498 119.342 157.821C118.729 158.145 118.082 158.306 117.401 158.306ZM118.116 155.881C119.053 155.881 119.929 155.412 120.747 154.476V148.629C120.304 148.237 119.87 147.965 119.444 147.812C119.036 147.658 118.619 147.582 118.193 147.582C117.376 147.582 116.687 147.939 116.125 148.654C115.563 149.369 115.282 150.391 115.282 151.718C115.282 153.08 115.52 154.119 115.997 154.834C116.491 155.532 117.197 155.881 118.116 155.881ZM132.785 158.306C131.917 158.306 131.108 158.162 130.359 157.872C129.61 157.566 128.955 157.132 128.393 156.57C127.831 156.008 127.389 155.327 127.065 154.527C126.759 153.71 126.606 152.782 126.606 151.744C126.606 150.723 126.767 149.803 127.091 148.986C127.414 148.169 127.84 147.48 128.367 146.918C128.912 146.356 129.534 145.922 130.231 145.616C130.929 145.309 131.644 145.156 132.376 145.156C133.228 145.156 133.977 145.301 134.623 145.59C135.27 145.88 135.807 146.288 136.232 146.816C136.675 147.344 137.007 147.973 137.228 148.705C137.449 149.437 137.56 150.237 137.56 151.106C137.56 151.395 137.543 151.667 137.509 151.923C137.492 152.178 137.466 152.382 137.432 152.536H129.465C129.602 153.659 129.993 154.527 130.64 155.14C131.304 155.736 132.147 156.034 133.168 156.034C133.713 156.034 134.215 155.957 134.675 155.804C135.151 155.634 135.619 155.404 136.079 155.115L137.075 156.953C136.479 157.345 135.815 157.668 135.083 157.923C134.351 158.179 133.585 158.306 132.785 158.306ZM129.44 150.544H135.006C135.006 149.574 134.794 148.816 134.368 148.271C133.96 147.71 133.321 147.429 132.453 147.429C131.704 147.429 131.049 147.693 130.487 148.22C129.925 148.748 129.576 149.522 129.44 150.544Z" fill="#F43F5E"/>
<path d="M25.0604 175.047C20.2949 179.369 12.0217 178.993 7.78898 174.325C3.55629 169.658 2.36292 164.391 7.12844 160.069C11.894 155.748 16.3061 156.785 20.5388 161.452C24.7715 166.12 29.8259 170.726 25.0604 175.047Z" fill="#F43F5E" fill-opacity="0.2"/>
<path d="M76.0983 22.5825C72.6614 25.6993 67.7384 26.5792 65.8126 24.4556C63.8869 22.332 63.8674 19.461 67.3044 16.3442C70.7413 13.2274 73.2559 13.2395 75.1816 15.3631C77.1074 17.4866 79.5353 19.4657 76.0983 22.5825Z" fill="#F43F5E" fill-opacity="0.2"/>
<path d="M193.583 179.778C190.146 182.895 185.223 183.774 183.297 181.651C181.371 179.527 181.352 176.656 184.789 173.54C188.226 170.423 190.74 170.435 192.666 172.558C194.592 174.682 197.02 176.661 193.583 179.778Z" fill="#F43F5E" fill-opacity="0.2"/>
<path d="M44.4419 103.388C45.1881 105.796 44.4917 108.423 43.0039 108.884C41.5161 109.345 40.0977 108.695 39.3514 106.288C38.6051 103.88 39.1881 102.644 40.6759 102.183C42.1637 101.722 43.6956 100.98 44.4419 103.388Z" fill="#F43F5E" fill-opacity="0.2"/>
<path d="M98.3012 185.701C99.0475 188.109 98.3511 190.735 96.8633 191.196C95.3755 191.657 93.9571 191.008 93.2108 188.6C92.4645 186.192 93.0475 184.956 94.5353 184.495C96.0231 184.034 97.555 183.293 98.3012 185.701Z" fill="#F43F5E" fill-opacity="0.2"/>
<path d="M11.9296 50.2731C10.618 51.6694 7.55505 49.9825 5.96732 48.3947C4.37959 46.807 2.37043 43.6804 4.68407 41.3667C6.99771 39.0531 10.0946 42.255 11.6824 43.8427C13.2701 45.4305 13.2412 48.8768 11.9296 50.2731Z" fill="#F43F5E" fill-opacity="0.5"/>
<path d="M175.35 63.1291C174.83 56.5585 180.353 50.0823 186.828 49.5697C193.304 49.0572 198.352 51.3854 198.872 57.956C199.392 64.5266 195.764 67.4567 189.289 67.9692C182.813 68.4818 175.87 69.6998 175.35 63.1291Z" fill="#F43F5E" fill-opacity="0.6"/>
<path d="M136.998 2.0848C137.617 4.39694 136.073 7.07437 133.794 7.68493C131.515 8.29549 129.559 7.79732 128.939 5.48518C128.32 3.17303 129.422 1.88713 131.701 1.27656C133.979 0.666 136.378 -0.22735 136.998 2.0848Z" fill="#F43F5E" fill-opacity="0.1"/>
<defs>
<linearGradient id="paint0_linear_2346_54149" x1="144" y1="130.194" x2="64" y2="50.1943" gradientUnits="userSpaceOnUse">
<stop stop-color="#FF1843"/>
<stop offset="1" stop-color="#FF7E95"/>
</linearGradient>
</defs>
</svg>
