<svg width="80" height="80" viewBox="0 0 80 80" fill="none" xmlns="http://www.w3.org/2000/svg">
<rect width="80" height="80" rx="40" fill="#F43F5E" fill-opacity="0.1"/>
<mask id="mask0_2347_54745" style="mask-type:alpha" maskUnits="userSpaceOnUse" x="26" y="28" width="28" height="24">
<path fill-rule="evenodd" clip-rule="evenodd" d="M50.6641 30.6667H46.4374L44.7841 28.8667C44.2907 28.32 43.5707 28 42.8241 28H37.1707C36.4241 28 35.7041 28.32 35.1974 28.8667L33.5574 30.6667H29.3307C27.8641 30.6667 26.6641 31.8667 26.6641 33.3333V49.3333C26.6641 50.8 27.8641 52 29.3307 52H50.6641C52.1307 52 53.3307 50.8 53.3307 49.3333V33.3333C53.3307 31.8667 52.1307 30.6667 50.6641 30.6667ZM39.9974 37.3333C37.7883 37.3333 35.9974 39.1242 35.9974 41.3333C35.9974 43.5425 37.7883 45.3333 39.9974 45.3333C42.2065 45.3333 43.9974 43.5425 43.9974 41.3333C43.9974 39.1242 42.2065 37.3333 39.9974 37.3333ZM33.3307 41.3333C33.3307 45.0133 36.3174 48 39.9974 48C43.6774 48 46.6641 45.0133 46.6641 41.3333C46.6641 37.6533 43.6774 34.6667 39.9974 34.6667C36.3174 34.6667 33.3307 37.6533 33.3307 41.3333Z" fill="black"/>
</mask>
<g mask="url(#mask0_2347_54745)">
<rect x="24" y="24" width="32" height="32" fill="url(#paint0_linear_2347_54745)"/>
</g>
<defs>
<linearGradient id="paint0_linear_2347_54745" x1="56" y1="56.0777" x2="24" y2="24.0777" gradientUnits="userSpaceOnUse">
<stop stop-color="#FF1843"/>
<stop offset="1" stop-color="#FF7E95"/>
</linearGradient>
</defs>
</svg>
