<svg width="16" height="16" viewBox="0 0 16 16" fill="none" xmlns="http://www.w3.org/2000/svg">
<mask id="mask0_5159_8860" style="mask-type:alpha" maskUnits="userSpaceOnUse" x="1" y="1" width="14" height="14">
<path fill-rule="evenodd" clip-rule="evenodd" d="M8.0026 1.33203C4.3226 1.33203 1.33594 4.3187 1.33594 7.9987C1.33594 11.6787 4.3226 14.6654 8.0026 14.6654C11.6826 14.6654 14.6693 11.6787 14.6693 7.9987C14.6693 4.3187 11.6826 1.33203 8.0026 1.33203ZM8.0026 8.66537C7.63594 8.66537 7.33594 8.36537 7.33594 7.9987V5.33203C7.33594 4.96536 7.63594 4.66536 8.0026 4.66536C8.36927 4.66536 8.66927 4.96536 8.66927 5.33203V7.9987C8.66927 8.36537 8.36927 8.66537 8.0026 8.66537ZM7.33594 9.9987V11.332H8.66927V9.9987H7.33594Z" fill="black"/>
</mask>
<g mask="url(#mask0_5159_8860)">
<rect width="16" height="16" fill="#394452"/>
</g>
</svg>
