<svg width="347" height="334" viewBox="0 0 347 334" fill="none" xmlns="http://www.w3.org/2000/svg">
<path d="M170.309 323.038C171.607 327.227 170.396 331.796 167.807 332.598C165.219 333.4 162.752 332.271 161.454 328.082C160.155 323.893 161.17 321.744 163.758 320.942C166.346 320.14 169.011 318.85 170.309 323.038Z" fill="#F43F5E" fill-opacity="0.2"/>
<path d="M336.068 312.734C330.089 318.156 321.525 319.686 318.176 315.992C314.826 312.298 314.792 307.304 320.77 301.882C326.749 296.46 331.124 296.481 334.473 300.175C337.823 303.869 342.047 307.312 336.068 312.734Z" fill="#F43F5E" fill-opacity="0.2"/>
<path d="M42.9023 304.501C34.6124 312.019 20.2207 311.365 12.8577 303.246C5.4947 295.126 3.41877 285.964 11.7086 278.446C19.9985 270.929 27.6737 272.733 35.0367 280.853C42.3997 288.972 51.1922 296.984 42.9023 304.501Z" fill="#F43F5E" fill-opacity="0.2"/>
<path d="M125.041 275.004V245.954H142.586V250.307H130.194V258.524H140.765V262.878H130.194V275.004H125.041ZM155.474 275.537C154.112 275.537 152.809 275.285 151.565 274.782C150.322 274.278 149.211 273.538 148.234 272.561C147.286 271.584 146.531 270.384 145.969 268.963C145.406 267.542 145.125 265.928 145.125 264.121C145.125 262.315 145.406 260.701 145.969 259.28C146.531 257.858 147.286 256.659 148.234 255.682C149.211 254.704 150.322 253.964 151.565 253.461C152.809 252.928 154.112 252.661 155.474 252.661C156.836 252.661 158.139 252.928 159.383 253.461C160.656 253.964 161.767 254.704 162.715 255.682C163.662 256.659 164.417 257.858 164.98 259.28C165.572 260.701 165.868 262.315 165.868 264.121C165.868 265.928 165.572 267.542 164.98 268.963C164.417 270.384 163.662 271.584 162.715 272.561C161.767 273.538 160.656 274.278 159.383 274.782C158.139 275.285 156.836 275.537 155.474 275.537ZM155.474 271.362C157.073 271.362 158.332 270.71 159.25 269.407C160.168 268.075 160.627 266.313 160.627 264.121C160.627 261.9 160.168 260.138 159.25 258.835C158.332 257.503 157.073 256.837 155.474 256.837C153.875 256.837 152.617 257.503 151.699 258.835C150.81 260.138 150.366 261.9 150.366 264.121C150.366 266.313 150.81 268.075 151.699 269.407C152.617 270.71 153.875 271.362 155.474 271.362ZM179.853 275.537C178.49 275.537 177.187 275.285 175.944 274.782C174.7 274.278 173.59 273.538 172.612 272.561C171.665 271.584 170.91 270.384 170.347 268.963C169.784 267.542 169.503 265.928 169.503 264.121C169.503 262.315 169.784 260.701 170.347 259.28C170.91 257.858 171.665 256.659 172.612 255.682C173.59 254.704 174.7 253.964 175.944 253.461C177.187 252.928 178.49 252.661 179.853 252.661C181.215 252.661 182.518 252.928 183.762 253.461C185.035 253.964 186.145 254.704 187.093 255.682C188.041 256.659 188.796 257.858 189.358 259.28C189.951 260.701 190.247 262.315 190.247 264.121C190.247 265.928 189.951 267.542 189.358 268.963C188.796 270.384 188.041 271.584 187.093 272.561C186.145 273.538 185.035 274.278 183.762 274.782C182.518 275.285 181.215 275.537 179.853 275.537ZM179.853 271.362C181.452 271.362 182.71 270.71 183.628 269.407C184.546 268.075 185.005 266.313 185.005 264.121C185.005 261.9 184.546 260.138 183.628 258.835C182.71 257.503 181.452 256.837 179.853 256.837C178.254 256.837 176.995 257.503 176.077 258.835C175.189 260.138 174.744 261.9 174.744 264.121C174.744 266.313 175.189 268.075 176.077 269.407C176.995 270.71 178.254 271.362 179.853 271.362ZM202.943 275.537C200.189 275.537 197.998 274.545 196.369 272.561C194.77 270.547 193.97 267.734 193.97 264.121C193.97 262.344 194.222 260.745 194.725 259.324C195.258 257.903 195.954 256.703 196.813 255.726C197.672 254.749 198.649 253.994 199.745 253.461C200.87 252.928 202.025 252.661 203.209 252.661C204.453 252.661 205.504 252.883 206.363 253.327C207.222 253.742 208.081 254.319 208.939 255.06L208.762 251.551V243.644H213.87V275.004H209.65L209.295 272.65H209.117C208.318 273.449 207.385 274.13 206.319 274.693C205.253 275.256 204.127 275.537 202.943 275.537ZM204.187 271.317C205.815 271.317 207.34 270.503 208.762 268.874V258.702C207.992 258.021 207.237 257.547 206.496 257.281C205.786 257.014 205.06 256.881 204.32 256.881C202.898 256.881 201.699 257.503 200.722 258.747C199.745 259.99 199.256 261.767 199.256 264.077C199.256 266.446 199.671 268.252 200.5 269.496C201.359 270.71 202.588 271.317 204.187 271.317ZM229.703 275.537C228.193 275.537 226.786 275.285 225.483 274.782C224.18 274.249 223.04 273.494 222.063 272.516C221.086 271.539 220.316 270.355 219.753 268.963C219.22 267.542 218.954 265.928 218.954 264.121C218.954 262.344 219.235 260.745 219.798 259.324C220.36 257.903 221.101 256.703 222.019 255.726C222.966 254.749 224.047 253.994 225.261 253.461C226.475 252.928 227.719 252.661 228.993 252.661C230.473 252.661 231.776 252.913 232.901 253.416C234.027 253.92 234.959 254.63 235.7 255.548C236.47 256.466 237.047 257.562 237.432 258.835C237.817 260.109 238.01 261.501 238.01 263.011C238.01 263.514 237.98 263.988 237.921 264.432C237.891 264.876 237.847 265.232 237.787 265.498H223.929C224.166 267.453 224.847 268.963 225.972 270.029C227.127 271.065 228.593 271.584 230.37 271.584C231.317 271.584 232.191 271.45 232.99 271.184C233.819 270.888 234.634 270.488 235.433 269.985L237.166 273.183C236.129 273.864 234.974 274.426 233.701 274.871C232.428 275.315 231.095 275.537 229.703 275.537ZM223.884 262.034H233.568C233.568 260.346 233.198 259.028 232.457 258.08C231.746 257.103 230.636 256.614 229.126 256.614C227.823 256.614 226.683 257.073 225.706 257.991C224.728 258.909 224.121 260.257 223.884 262.034Z" fill="#F43F5E"/>
<path d="M76.6134 179.847C77.9116 184.036 76.7002 188.605 74.1121 189.407C71.524 190.209 69.0565 189.08 67.7583 184.891C66.4601 180.702 67.4743 178.552 70.0624 177.75C72.6505 176.948 75.3153 175.658 76.6134 179.847Z" fill="#F43F5E" fill-opacity="0.2"/>
<rect x="111" y="87.0039" width="139" height="139" rx="32" fill="url(#paint0_linear_2346_53923)"/>
<path d="M210.62 152.074C213.488 152.074 215.755 149.3 215.2 146.327C212.193 130.326 196.6 122.301 181.007 122.301C165.414 122.301 149.867 130.326 146.814 146.327C146.258 149.3 148.572 152.074 151.394 152.074H210.62Z" fill="white"/>
<path d="M211.075 181.798H150.924C148.379 181.798 146.297 184.027 146.297 186.752C146.297 189.476 148.379 191.705 150.924 191.705H211.075C213.619 191.705 215.702 189.476 215.702 186.752C215.702 184.027 213.619 181.798 211.075 181.798Z" fill="white"/>
<path d="M150.924 161.982H211.075C213.619 161.982 215.702 164.211 215.702 166.936C215.702 169.66 213.619 171.89 211.075 171.89H150.924C148.379 171.89 146.297 169.66 146.297 166.936C146.297 164.211 148.379 161.982 150.924 161.982Z" fill="white"/>
<path d="M304.337 109.819C303.432 98.3891 313.039 87.1232 324.304 86.2316C335.568 85.34 344.35 89.3901 345.254 100.82C346.159 112.25 339.848 117.347 328.584 118.239C317.32 119.13 305.242 121.249 304.337 109.819Z" fill="#F43F5E" fill-opacity="0.6"/>
<path d="M20.061 87.4463C17.7795 89.8752 12.4513 86.9407 9.68935 84.1787C6.9274 81.4168 3.43236 75.9778 7.45707 71.9531C11.4818 67.9284 16.8691 73.4983 19.631 76.2603C22.3929 79.0222 22.3426 85.0173 20.061 87.4463Z" fill="#F43F5E" fill-opacity="0.5"/>
<path d="M131.693 39.2806C125.714 44.7024 117.15 46.2331 113.801 42.539C110.451 38.8449 110.417 33.8506 116.395 28.4288C122.374 23.007 126.749 23.0279 130.098 26.722C133.448 30.4161 137.672 33.8588 131.693 39.2806Z" fill="#F43F5E" fill-opacity="0.2"/>
<path d="M237.624 3.62855C238.701 7.65066 236.014 12.3082 232.05 13.3703C228.087 14.4324 224.683 13.5658 223.605 9.5437C222.528 5.5216 224.445 3.2847 228.409 2.22259C232.373 1.16048 236.546 -0.393554 237.624 3.62855Z" fill="#F43F5E" fill-opacity="0.1"/>
<defs>
<linearGradient id="paint0_linear_2346_53923" x1="250" y1="226.342" x2="111" y2="87.3416" gradientUnits="userSpaceOnUse">
<stop stop-color="#FF1843"/>
<stop offset="1" stop-color="#FF7E95"/>
</linearGradient>
</defs>
</svg>
